<svg width="16" height="16" viewBox="0 0 16 16" fill="none" xmlns="http://www.w3.org/2000/svg">
<g clip-path="url(#clip0_2238_4722)">
<path d="M8 0C6.41775 0 4.87104 0.469192 3.55544 1.34824C2.23985 2.22729 1.21447 3.47672 0.608967 4.93853C0.00346629 6.40034 -0.15496 8.00887 0.153721 9.56072C0.462403 11.1126 1.22433 12.538 2.34315 13.6569C3.46197 14.7757 4.88743 15.5376 6.43928 15.8463C7.99113 16.155 9.59966 15.9965 11.0615 15.391C12.5233 14.7855 13.7727 13.7602 14.6518 12.4446C15.5308 11.129 16 9.58225 16 8C16 5.87827 15.1571 3.84344 13.6569 2.34315C12.1566 0.842855 10.1217 0 8 0V0ZM8 14.5467C6.70548 14.5453 5.44041 14.1603 4.36469 13.4401C3.28897 12.72 2.45091 11.697 1.95643 10.5007C1.46195 9.30432 1.33325 7.98822 1.58661 6.71873C1.83997 5.44924 2.464 4.28336 3.37983 3.36846C4.29567 2.45355 5.46218 1.83071 6.73193 1.57864C8.00168 1.32658 9.31765 1.45661 10.5135 1.95231C11.7094 2.44801 12.7314 3.28711 13.4505 4.36356C14.1695 5.44001 14.5533 6.70548 14.5533 8C14.5516 9.7369 13.8604 11.4021 12.6316 12.6296C11.4028 13.8571 9.7369 14.5467 8 14.5467Z" fill="#ADADAD"/>
<path fill-rule="evenodd" clip-rule="evenodd" d="M4.73176 5.89817L6.8369 8.00759L4.73724 10.1029L4.7318 10.1085C4.5817 10.263 4.49845 10.4704 4.50002 10.6859C4.5016 10.9013 4.58787 11.1075 4.74021 11.2598C4.89255 11.4121 5.09871 11.4984 5.31414 11.5C5.52957 11.5016 5.737 11.4183 5.89155 11.2682L8.00133 9.16274L10.1016 11.2631L10.1069 11.2682C10.2614 11.4183 10.4688 11.5016 10.6842 11.5C10.8997 11.4984 11.1058 11.4121 11.2582 11.2598C11.4105 11.1075 11.4968 10.9013 11.4984 10.6859C11.4999 10.4704 11.4167 10.263 11.2666 10.1084L9.15471 8.00723L11.2546 5.90523C11.331 5.83015 11.392 5.74082 11.4341 5.64227C11.4768 5.5423 11.4992 5.43484 11.5 5.32613C11.5008 5.21742 11.4799 5.10964 11.4387 5.00905C11.3975 4.90847 11.3367 4.81708 11.2598 4.74021C11.1829 4.66334 11.0915 4.60252 10.9909 4.56129C10.8904 4.52005 10.7826 4.49923 10.6739 4.50002C10.5652 4.50082 10.4577 4.52321 10.3577 4.56591C10.259 4.60807 10.1696 4.66918 10.0944 4.74577L8.00097 6.84351L5.89639 4.74315L5.89152 4.73841C5.73697 4.58832 5.52957 4.50506 5.31414 4.50664C5.09871 4.50821 4.89255 4.59449 4.74021 4.74683C4.58787 4.89917 4.5016 5.10533 4.50002 5.32076C4.49845 5.53619 4.58167 5.74362 4.73176 5.89817Z" fill="#ADADAD"/>
</g>
<defs>
<clipPath id="clip0_2238_4722">
<rect width="16" height="16" fill="white"/>
</clipPath>
</defs>
</svg>
